<?xml version="1.0" encoding="UTF-8"?>
<svg xmlns="http://www.w3.org/2000/svg" width="560" height="240" viewBox="0 0 560 240" class="campus-plan" font-family="system-ui, -apple-system, Segoe UI, Roboto, sans-serif">
  <rect class="plan-floor" x="0" y="0" width="560" height="240" fill="#EDECE8"/>
  <rect class="plan-corridor" x="0" y="105" width="560" height="30" fill="#ECEFF2"/>
  <rect class="plan-room plan-room--library" x="0" y="0" width="220" height="105" fill="#E6F2EE" stroke="#3F444D" stroke-width="2"/>
  <rect class="plan-room plan-room--service" x="220" y="0" width="40" height="105" fill="#E9E9E6" stroke="#3F444D" stroke-width="2"/>
  <rect class="plan-room plan-room--room" x="260" y="0" width="120" height="105" fill="#FFFFFF" stroke="#3F444D" stroke-width="2"/>
  <rect class="plan-room plan-room--room" x="380" y="0" width="100" height="105" fill="#FFFFFF" stroke="#3F444D" stroke-width="2"/>
  <rect class="plan-room plan-room--service" x="480" y="0" width="20" height="105" fill="#E9E9E6" stroke="#3F444D" stroke-width="2"/>
  <rect class="plan-room plan-room--stairs" x="500" y="0" width="60" height="105" fill="#E3F1E6" stroke="#3F444D" stroke-width="2"/>
  <line class="plan-stairs" x1="504" y1="6" x2="556" y2="6" stroke="#3F444D" stroke-width="1.2"/>
  <line class="plan-stairs" x1="504" y1="12" x2="556" y2="12" stroke="#3F444D" stroke-width="1.2"/>
  <line class="plan-stairs" x1="504" y1="18" x2="556" y2="18" stroke="#3F444D" stroke-width="1.2"/>
  <line class="plan-stairs" x1="504" y1="24" x2="556" y2="24" stroke="#3F444D" stroke-width="1.2"/>
  <line class="plan-stairs" x1="504" y1="30" x2="556" y2="30" stroke="#3F444D" stroke-width="1.2"/>
  <line class="plan-stairs" x1="504" y1="36" x2="556" y2="36" stroke="#3F444D" stroke-width="1.2"/>
  <line class="plan-stairs" x1="504" y1="42" x2="556" y2="42" stroke="#3F444D" stroke-width="1.2"/>
  <line class="plan-stairs" x1="504" y1="48" x2="556" y2="48" stroke="#3F444D" stroke-width="1.2"/>
  <line class="plan-stairs" x1="504" y1="54" x2="556" y2="54" stroke="#3F444D" stroke-width="1.2"/>
  <line class="plan-stairs" x1="504" y1="60" x2="556" y2="60" stroke="#3F444D" stroke-width="1.2"/>
  <line class="plan-stairs" x1="504" y1="66" x2="556" y2="66" stroke="#3F444D" stroke-width="1.2"/>
  <line class="plan-stairs" x1="504" y1="72" x2="556" y2="72" stroke="#3F444D" stroke-width="1.2"/>
  <line class="plan-stairs" x1="504" y1="78" x2="556" y2="78" stroke="#3F444D" stroke-width="1.2"/>
  <line class="plan-stairs" x1="504" y1="84" x2="556" y2="84" stroke="#3F444D" stroke-width="1.2"/>
  <line class="plan-stairs" x1="504" y1="90" x2="556" y2="90" stroke="#3F444D" stroke-width="1.2"/>
  <line class="plan-stairs" x1="504" y1="96" x2="556" y2="96" stroke="#3F444D" stroke-width="1.2"/>
  <line class="plan-stairs" x1="504" y1="102" x2="556" y2="102" stroke="#3F444D" stroke-width="1.2"/>
  <rect class="plan-room plan-room--canteen" x="0" y="135" width="140" height="105" fill="#FBEFDD" stroke="#3F444D" stroke-width="2"/>
  <rect class="plan-room plan-room--service" x="140" y="135" width="80" height="105" fill="#E9E9E6" stroke="#3F444D" stroke-width="2"/>
  <rect class="plan-room plan-room--hall" x="220" y="135" width="120" height="105" fill="#F2F2EC" stroke="#3F444D" stroke-width="2"/>
  <rect class="plan-room plan-room--service" x="340" y="135" width="100" height="105" fill="#E9E9E6" stroke="#3F444D" stroke-width="2"/>
  <rect class="plan-room plan-room--toilet" x="440" y="135" width="80" height="105" fill="#E6EFF9" stroke="#3F444D" stroke-width="2"/>
  <rect class="plan-room plan-room--service" x="520" y="135" width="40" height="105" fill="#E9E9E6" stroke="#3F444D" stroke-width="2"/>
  <line class="plan-door" x1="104" y1="105" x2="116" y2="105" stroke="#ECEFF2" stroke-width="4"/>
  <line class="plan-door" x1="314" y1="105" x2="326" y2="105" stroke="#ECEFF2" stroke-width="4"/>
  <line class="plan-door" x1="424" y1="105" x2="436" y2="105" stroke="#ECEFF2" stroke-width="4"/>
  <line class="plan-door" x1="524" y1="105" x2="536" y2="105" stroke="#ECEFF2" stroke-width="4"/>
  <line class="plan-door" x1="64" y1="135" x2="76" y2="135" stroke="#ECEFF2" stroke-width="4"/>
  <line class="plan-door" x1="274" y1="135" x2="286" y2="135" stroke="#ECEFF2" stroke-width="4"/>
  <line class="plan-door" x1="474" y1="135" x2="486" y2="135" stroke="#ECEFF2" stroke-width="4"/>
  <rect class="plan-wall" x="2" y="2" width="556" height="236" fill="none" stroke="#3F444D" stroke-width="4"/>
  <line class="plan-door plan-door--outer" x1="271" y1="238" x2="289" y2="238" stroke="#EDECE8" stroke-width="6"/>
  <g class="plan-icon" transform="translate(95 3) scale(1.25)"><path d="M12 6.25v13m0-13C10.83 5.48 9.25 5 7.5 5S4.17 5.48 3 6.25v13C4.17 18.48 5.75 18 7.5 18s3.33.48 4.5 1.25m0-13C13.17 5.48 14.75 5 16.5 5c1.75 0 3.33.48 4.5 1.25v13C19.83 18.48 18.25 18 16.5 18c-1.75 0-3.33.48-4.5 1.25" fill="none" stroke="#6B7280" stroke-width="1.8" stroke-linecap="round" stroke-linejoin="round"/></g>
  <text class="plan-label" x="320" y="65" text-anchor="middle" dominant-baseline="central" font-size="14" fill="#4B5563">Б-101</text>
  <text class="plan-label" x="430" y="65" text-anchor="middle" dominant-baseline="central" font-size="14" fill="#4B5563">Б-102</text>
  <g class="plan-icon" transform="translate(55 158) scale(1.25)"><path d="M6 3v5a3 3 0 003 3 3 3 0 003-3V3M9 3v18M18 21V3c-2.2 1.2-3.5 3.8-3.5 7v4H18" fill="none" stroke="#6B7280" stroke-width="1.8" stroke-linecap="round" stroke-linejoin="round"/></g>
  <g class="plan-icon" transform="translate(265 158) scale(1.25)"><path d="M11 16l-4-4m0 0l4-4m-4 4h14m-5 4v1a3 3 0 01-3 3H6a3 3 0 01-3-3V7a3 3 0 013-3h7a3 3 0 013 3v1" fill="none" stroke="#6B7280" stroke-width="1.8" stroke-linecap="round" stroke-linejoin="round"/></g>
  <g class="plan-icon" transform="translate(465 158) scale(1.25)"><path d="M7 3.5a1.5 1.5 0 110 3 1.5 1.5 0 010-3zM17 3.5a1.5 1.5 0 110 3 1.5 1.5 0 010-3zM12 3v18M5.5 21v-6h-1v-5a1.5 1.5 0 011.5-1.5h2A1.5 1.5 0 019.5 10v5h-1v6M15.5 21v-4.5H13l2.2-6.8a1 1 0 01.95-.7h1.7a1 1 0 01.95.7l2.2 6.8h-2.5V21" fill="none" stroke="#6B7280" stroke-width="1.8" stroke-linecap="round" stroke-linejoin="round"/></g>
</svg>
