0
SECTION
2
ENTITIES
0
LWPOLYLINE
8
WALLS
90
4
70
1
10
0
20
0
10
60
20
0
10
60
20
20
10
0
20
20
0
LINE
8
WALLS
10
0
20
8
30
0
11
60
21
8
31
0
0
LINE
8
WALLS
10
0
20
12
30
0
11
60
21
12
31
0
0
LINE
8
WALLS
10
12
20
12
30
0
11
12
21
20
31
0
0
LINE
8
WALLS
10
12
20
0
30
0
11
12
21
8
31
0
0
LINE
8
WALLS
10
24
20
12
30
0
11
24
21
20
31
0
0
LINE
8
WALLS
10
24
20
0
30
0
11
24
21
8
31
0
0
LINE
8
WALLS
10
36
20
12
30
0
11
36
21
20
31
0
0
LINE
8
WALLS
10
36
20
0
30
0
11
36
21
8
31
0
0
LINE
8
WALLS
10
48
20
12
30
0
11
48
21
20
31
0
0
LINE
8
WALLS
10
48
20
0
30
0
11
48
21
8
31
0
0
TEXT
8
TEXT
10
4
20
16
30
0
40
1.2
1
В-101
0
TEXT
8
TEXT
10
16
20
16
30
0
40
1.2
1
В-102
0
TEXT
8
TEXT
10
28
20
16
30
0
40
1.2
1
В-103
0
TEXT
8
TEXT
10
2
20
22
30
0
40
2
1
Корпус В. План 1 этажа
0
ENDSEC
0
EOF